<mxfile host="app.diagrams.net" modified="2024-02-27T01:47:31.929Z" agent="Mozilla/5.0 (Windows NT 10.0; Win64; x64) AppleWebKit/537.36 (KHTML, like Gecko) Chrome/122.0.0.0 Safari/537.36" version="23.1.5" etag="l2EbOs4YnkEh1wyXJj6J" type="github">
  <diagram name="Page-1" id="E6YxOW7fUXcIBaJ8G9EK">
    <mxGraphModel>
      <root>
        <mxCell id="0" />
        <mxCell id="1" parent="0" />
      </root>
    </mxGraphModel>
  </diagram>
</mxfile>
